<?xml version="1.0" encoding="UTF-8" standalone="no"?>
<!-- Created with Inkscape (http://www.inkscape.org/) -->

<svg
   width="210mm"
   height="297mm"
   viewBox="0 0 210 297"
   version="1.1"
   id="svg1"
   xml:space="preserve"
   xmlns="http://www.w3.org/2000/svg"
   xmlns:svg="http://www.w3.org/2000/svg"><defs
     id="defs1">
	

		
		
		
		
	
			
		
			
		
			
		
			
		</defs><g
     id="layer1"><path
       d="m 62.777394,158.45607 c 0,0 -0.179717,7.42108 -9.034431,16.24769 -8.854715,8.83013 -17.396827,9.27269 -17.396827,9.27269 l 36.480768,36.49131 h -3.026502 v 33.02868 h 77.840818 v -33.02868 h -22.84511 z m 78.711896,88.87438 H 75.959363 v -20.7008 H 141.4928 v 20.7008 z"
       id="base"
       style="fill:#4d4d4d;stroke-width:1;fill-opacity:1;stroke:#000000;stroke-opacity:1;stroke-dasharray:none" /><g
       id="g12"
       style="fill:#00869d;fill-opacity:1;stroke:#000000;stroke-opacity:1"><path
         id="circle1"
         style="stroke-width:0.585397"
         d="m 42.900826,149.22144 a 11.821507,11.821507 0 0 1 -11.821507,11.8215 11.821507,11.821507 0 0 1 -11.821507,-11.8215 11.821507,11.821507 0 0 1 11.821507,-11.82151 11.821507,11.821507 0 0 1 11.821507,11.82151 z" /><path
         d="m 60.89827,149.22143 c 0,-1.0262 -0.05093,-2.03659 -0.151032,-3.03879 -1.5554,-15.27125 -14.305346,-26.78016 -29.672017,-26.78016 -16.446142,0 -29.8177797,13.3734 -29.8177797,29.81895 0,16.44029 13.3716377,29.81252 29.8177797,29.81252 16.454924,0 29.823049,-13.37223 29.823049,-29.81252 z m -29.818951,22.36744 c -12.331387,0 -22.3639203,-10.03254 -22.3639203,-22.37095 0,-12.34017 10.0325333,-22.3727 22.3639203,-22.3727 12.340168,0 22.372702,10.03253 22.372702,22.3727 -5.86e-4,12.33841 -10.032534,22.37095 -22.372702,22.37095 z"
         id="path2"
         style="fill:#00869d;stroke-width:0.585397;fill-opacity:1;stroke:#000000;stroke-opacity:1" /></g><path
       style="fill:#000000;stroke-width:1;stroke:#00869d;stroke-opacity:1;stroke-dasharray:none"
       d="m 160.26765,106.08121 20.49006,4.08841 c 0.23182,0.0509 0.47769,0.0755 0.70248,0.0755 1.27617,0 2.44696,-0.69077 3.05167,-1.79249 l 23.0102,-41.161018 c 0.93547,-1.691212 0.33017,-3.840205 -1.35636,-4.780937 v 4e-6 c -1.05137,-0.592422 -2.38315,-0.592422 -3.4515,0.0088 -0.56257,0.320212 -1.02679,0.791456 -1.32944,1.344656 L 179.62614,102.78074 155.3187,97.931312"
       id="lowerclaw" /><path
       style="fill:#4d4d4d;fill-opacity:1;stroke:#000000;stroke-width:1;stroke-dasharray:none;stroke-opacity:1"
       d="m 135.36252,61.751435 -16.0791,8.499964 3.45911,6.564641 -76.486794,40.4562 c 0,0 5.791332,0.1967 13.821807,13.41555 8.030476,13.22411 4.365891,19.35966 4.365891,19.35966 l 75.488696,-40.75709 3.45911,6.55234 c 5.8313,-3.04275 11.47939,-6.41111 17.59352,-8.84417 z"
       id="upperarm" /><path
       style="fill:#000000;stroke-width:1;stroke:#00869d;stroke-opacity:1;stroke-dasharray:none"
       d="m 139.77056,69.743277 8.16921,-20.7412 44.44276,2.775367 0.32723,0.01229 c 0.53798,0 1.08943,-0.130543 1.59931,-0.400996 1.09293,-0.583641 1.78546,-1.663113 1.85219,-2.882495 0.0667,-0.947172 -0.24235,-1.843415 -0.86521,-2.551746 -0.61877,-0.703061 -1.47579,-1.119864 -2.41828,-1.184843 l -47.23685,-2.940449 c -1.51852,0 -2.75254,0.831264 -3.29754,2.216313 l -6.98086,17.705917 v 0"
       id="upperclaw" /></g></svg>
